<svg width="20" height="20" viewBox="0 0 20 20" fill="none" xmlns="http://www.w3.org/2000/svg">
<path d="M13.75 2.5H6.25C4.18225 2.5 2.5 4.18225 2.5 6.25V13.75C2.5 15.8177 4.18225 17.5 6.25 17.5H10V11.25H9.125C8.77988 11.25 8.5 10.9701 8.5 10.625C8.5 10.2799 8.77988 10 9.125 10H10V8.89062C10 7.43463 11.1846 6.25 12.6406 6.25H14C14.3451 6.25 14.625 6.52987 14.625 6.875C14.625 7.22013 14.3451 7.5 14 7.5H12.6406C11.8739 7.5 11.25 8.12388 11.25 8.89062V10H13.75C14.0951 10 14.375 10.2799 14.375 10.625C14.375 10.9701 14.0951 11.25 13.75 11.25H11.25V17.5H13.75C15.8177 17.5 17.5 15.8177 17.5 13.75V6.25C17.5 4.18225 15.8177 2.5 13.75 2.5Z" fill="white"/>
</svg>
