<svg width="20" height="20" viewBox="0 0 20 20" fill="none" xmlns="http://www.w3.org/2000/svg">
<path d="M12.7386 10.0172C12.7386 11.5369 11.5024 12.7731 9.98275 12.7731C8.46312 12.7731 7.22687 11.5369 7.22687 10.0172C7.22687 8.49762 8.46312 7.26138 9.98275 7.26138C11.5024 7.26138 12.7386 8.49762 12.7386 10.0172ZM17.5 6.25V13.75C17.5 15.8177 15.8177 17.5 13.75 17.5H6.25C4.18225 17.5 2.5 15.8177 2.5 13.75V6.25C2.5 4.18225 4.18225 2.5 6.25 2.5H13.75C15.8177 2.5 17.5 4.18225 17.5 6.25ZM14.0905 10.0172C14.0905 7.75212 12.2479 5.9095 9.98275 5.9095C7.71762 5.9095 5.875 7.75212 5.875 10.0172C5.875 12.2824 7.71762 14.125 9.98275 14.125C12.2479 14.125 14.0905 12.2824 14.0905 10.0172ZM15.625 5.3515C15.625 4.81225 15.1877 4.375 14.6485 4.375C14.1092 4.375 13.672 4.81225 13.672 5.3515C13.672 5.89075 14.1092 6.328 14.6485 6.328C15.1877 6.328 15.625 5.89075 15.625 5.3515Z" fill="white"/>
</svg>
