<svg width="20" height="20" viewBox="0 0 20 20" fill="none" xmlns="http://www.w3.org/2000/svg">
<path d="M17.6911 4.50725L15.3144 16.7688L15.3036 16.7965C15.302 16.8008 15.192 17.0761 14.931 17.288C14.759 17.4274 14.4941 17.5106 14.2226 17.5106C14.0315 17.5106 13.8438 17.4705 13.6645 17.3915L13.6335 17.3781L11.049 15.381C10.8661 15.2398 10.6385 15.1619 10.4079 15.1619C10.1449 15.1619 9.89288 15.26 9.69863 15.4381L8.30001 16.7209L8.28838 16.73C8.28838 16.73 8.11751 16.8533 7.89663 16.8533C7.83851 16.8533 7.78051 16.8446 7.72438 16.8275L7.69988 16.82L7.69638 16.8195L7.92501 13.8468C7.97313 13.2211 8.25013 12.6351 8.70288 12.2008L11.8613 9.17138C12.1601 8.88463 11.7959 8.40976 11.4415 8.62426L5.83263 12.019L2.61701 10.9283C2.56263 10.9055 2.43863 10.849 2.31213 10.7583C2.05813 10.5769 1.91976 10.3648 1.88826 10.1095C1.86501 9.92713 1.93401 9.74838 2.00638 9.64138C2.09938 9.50401 2.20713 9.42413 2.28026 9.37613C2.44701 9.26076 2.60438 9.19826 2.64888 9.18163L2.66376 9.17576C2.88288 9.08276 6.08913 7.72138 9.34863 6.33888L14.0558 4.34213L14.7796 4.03625C15.6145 3.6835 16.1849 3.44238 16.3731 3.3655L16.4075 3.35263C16.5273 3.30575 16.7075 3.24238 16.8891 3.23388C16.9031 3.23325 16.9173 3.23288 16.9316 3.23288C17.087 3.23288 17.2298 3.27325 17.3683 3.35638C17.5203 3.447 17.6553 3.63125 17.7051 3.8155C17.7574 4.00838 17.753 4.22838 17.6911 4.50725Z" fill="#002F75"/>
</svg>
