<svg width="20" height="20" viewBox="0 0 20 20" fill="none" xmlns="http://www.w3.org/2000/svg">
<path d="M18.7296 8.294C18.7238 8.20625 18.7183 8.11613 18.7128 8.024C18.6578 7.10938 18.5891 5.97112 17.9566 4.99025C17.9471 4.97562 17.9371 4.9615 17.9265 4.94763C17.5504 4.45925 16.9341 4.09525 16.279 3.974C15.5006 3.8285 12.4661 3.75 10.006 3.75C7.54551 3.75 4.51088 3.8285 3.73476 3.97375C3.21338 4.07 2.74601 4.30237 2.34401 4.66662C1.57076 5.37312 1.45551 6.45363 1.36288 7.32188C1.35401 7.40513 1.34526 7.48738 1.33601 7.56813C1.33513 7.57588 1.33438 7.58363 1.33376 7.59138C1.22276 9.04375 1.22251 10.4354 1.33288 12.3946C1.33313 12.4001 1.33363 12.4056 1.33401 12.4111C1.39626 13.1599 1.44438 13.5458 1.58026 13.9926C1.74463 14.5493 1.96801 14.9614 2.25813 15.2478C2.62501 15.6176 3.11713 15.8727 3.67913 15.9847C4.37401 16.1259 5.38451 16.1775 8.59363 16.2358H8.59513C9.17588 16.2449 9.73363 16.2495 10.2754 16.2495C12.3518 16.2495 14.1919 16.1809 16.1844 16.0331C16.2039 16.0316 16.2233 16.0294 16.2424 16.0261C16.7971 15.9323 17.3031 15.6771 17.7101 15.284C17.9748 15.0235 18.1339 14.7755 18.2958 14.3728C18.5558 13.7394 18.6354 13.1227 18.7299 11.699C18.7569 11.2386 18.7569 8.76025 18.7296 8.294ZM12.6746 10.41C11.6283 10.9496 9.59876 12.0004 8.08501 12.81C7.82001 12.9517 7.50001 12.7594 7.50001 12.4589V7.5995C7.50001 7.30212 7.81538 7.10987 8.08013 7.24537C9.67313 8.061 11.0543 8.86137 12.674 9.70325C12.9609 9.85225 12.962 10.2619 12.6746 10.41Z" fill="#002F75"/>
</svg>
