<svg width="20" height="20" viewBox="0 0 20 20" fill="none" xmlns="http://www.w3.org/2000/svg">
<path d="M18.7296 8.294C18.7237 8.20625 18.7182 8.11613 18.7127 8.024C18.6577 7.10938 18.5891 5.97112 17.9566 4.99025C17.9471 4.97562 17.9371 4.9615 17.9264 4.94763C17.5503 4.45925 16.9341 4.09525 16.2789 3.974C15.5006 3.8285 12.4661 3.75 10.0059 3.75C7.54545 3.75 4.51082 3.8285 3.7347 3.97375C3.21332 4.07 2.74595 4.30237 2.34395 4.66662C1.5707 5.37312 1.45545 6.45363 1.36282 7.32188C1.35395 7.40513 1.3452 7.48738 1.33595 7.56813C1.33507 7.57588 1.33432 7.58363 1.3337 7.59138C1.2227 9.04375 1.22245 10.4354 1.33282 12.3946C1.33307 12.4001 1.33357 12.4056 1.33395 12.4111C1.3962 13.1599 1.44432 13.5458 1.5802 13.9926C1.74457 14.5493 1.96795 14.9614 2.25807 15.2478C2.62495 15.6176 3.11707 15.8727 3.67907 15.9847C4.37395 16.1259 5.38445 16.1775 8.59357 16.2358H8.59507C9.17582 16.2449 9.73357 16.2495 10.2753 16.2495C12.3517 16.2495 14.1918 16.1809 16.1843 16.0331C16.2038 16.0316 16.2232 16.0294 16.2423 16.0261C16.7971 15.9323 17.3031 15.6771 17.7101 15.284C17.9747 15.0235 18.1338 14.7755 18.2957 14.3728C18.5557 13.7394 18.6353 13.1227 18.7298 11.699C18.7568 11.2386 18.7568 8.76025 18.7296 8.294ZM12.6746 10.41C11.6282 10.9496 9.5987 12.0004 8.08495 12.81C7.81995 12.9517 7.49995 12.7594 7.49995 12.4589V7.5995C7.49995 7.30212 7.81532 7.10987 8.08007 7.24537C9.67307 8.061 11.0542 8.86137 12.6739 9.70325C12.9608 9.85225 12.9619 10.2619 12.6746 10.41Z" fill="white"/>
</svg>
